<svg xmlns="http://www.w3.org/2000/svg" width="66" height="65" fill="none"><path fill="#FD4D35" d="M27.643 2.665a8.157 8.157 0 0 1 10.714 0 8.157 8.157 0 0 0 6.537 1.92 8.157 8.157 0 0 1 9.013 5.791 8.157 8.157 0 0 0 4.462 5.15 8.157 8.157 0 0 1 4.45 9.745 8.157 8.157 0 0 0 .97 6.744 8.157 8.157 0 0 1-1.525 10.605 8.157 8.157 0 0 0-2.83 6.197 8.157 8.157 0 0 1-7.016 8.097 8.157 8.157 0 0 0-5.732 3.683 8.157 8.157 0 0 1-10.28 3.019 8.157 8.157 0 0 0-6.813 0 8.157 8.157 0 0 1-10.28-3.019 8.157 8.157 0 0 0-5.731-3.683 8.157 8.157 0 0 1-7.016-8.097 8.157 8.157 0 0 0-2.83-6.197A8.157 8.157 0 0 1 2.21 32.014a8.157 8.157 0 0 0 .97-6.744 8.157 8.157 0 0 1 4.45-9.746 8.157 8.157 0 0 0 4.462-5.149 8.157 8.157 0 0 1 9.013-5.792 8.157 8.157 0 0 0 6.537-1.92Z"/></svg>